<?xml version="1.0" encoding="UTF-8"?><svg xmlns="http://www.w3.org/2000/svg" viewBox="0 0 1564.54 500"><g id="BACKGROUND"><path d="m194.94,412.08s-15.62-.65-17.36-19.1c-1.74-18.44,5.21-25.82-.43-29.29-5.64-3.47-8.25,8.68-15.62,5.21-7.38-3.47-7.38-12.59,0-24.52,7.38-11.93,8.68-25.39,2.17-26.47-6.51-1.08-12.59,3.62-15.19-1.77-2.6-5.39-6-14.29,5.25-40.54,11.25-26.26,12.13-58.78,1.71-59.55-10.43-.77-15.63-4.46-7.82-12.93,7.81-8.46,10.63-21.28.87-23.12-9.76-1.84-5.04,9.01-13.48,19.86-8.44,10.85-19.29,16.49-20.37,10.63-1.08-5.86,12.37-21.93,10.85-30.5-1.52-8.56-12.37-12.89-14.32-.2-1.95,12.69-7.16,14.43-17.79,14.86-10.63.43-16.49-7.81-16.49-7.81,0,0-11.72,3.91-15.19,21.27-3.47,17.36-16.27,20.68-16.93,50.16-.65,29.48-1.52,59.43,3.47,79.17,4.99,19.75,10.2,37,26.47,71.83,16.27,34.83,11.07,55.66,38.41,62.17,27.34,6.51,25.06,7.16,38.08,3.58,13.02-3.58,42.31-6.18,46.55-14.97,4.23-8.79,6.57-13.89,6.57-23.76s-9.4-24.2-9.4-24.2Z" fill="#7acefd" stroke-width="0"/><path d="m173.52,435.52c-12.17-3.63-25.87-11.29-29.96-24.11-.7-2.33-1.02-4.81-1.03-7.24-.16-5.51-.26-11.35-1.35-16.64-.8-3.26-1.7-6.03-5.56-4.8-.85.24-1.58.55-2.54.63-4.21.49-5.74-3.64-5.6-7.17.08-7.28,1.98-14.38,1.72-21.57.07-5.69-3.07-10.26-6.79-14.4-1.97-2.2-3.96-4.88-4.36-7.94-.44-3.08.22-6.03.98-8.83.06-.22.29-.36.52-.3.22.06.35.28.3.49-.49,2.8-.8,5.7-.21,8.34.62,2.76,2.46,4.73,4.46,6.67,4.44,4.09,8.26,9.51,8.56,15.73.56,5.9-.13,11.79-.46,17.58-.08,2.02-.21,3.94.17,5.85.1.47.31.92.31.83-.35-.34-.5.03,1.49-.75,1.81-.57,3.75-.87,5.73-.34,8.69,2.46,8.22,19.11,8.88,26.39-.01,7.97,5.17,14.18,11.78,18.66,4.47,3.03,9.59,5.54,14.7,7.29,3.55,1.26,2,6.55-1.72,5.63h0Z" fill="#fff" stroke-width="0"/><path d="m114.66,389.38c-7.93-8.94-11.91-21.44-9.73-33.29.37-2.69,1.87-6.46,1.83-8.8-.14-.99-.82-1.54-1.58-2.27-4.75-3.7-9.87-6.62-6.56-13.76.91-2,2.44-4.03,3.54-5.58.52-.76,1.25-1.78,1.3-2.41-.02,0,.03-.01,0-.03-.02-.02-.03-.04-.02-.08-.25-.35-.46-.59-.85-.89-1.62-1.37-2.87-1.13-5.08-2.28-5-2.74-4.19-11.79-3.92-16.63.8-8.09,3.85-15.65,7.43-22.81.76-1.47,1.37-3.13,1.32-4.79-.11-6.07-5.87-8.94-10.77-4.72-2.27,1.89-4.07,4.55-5.56,7.34-.25.48-.85.66-1.33.41-.45-.24-.63-.77-.45-1.23,1.24-3.09,2.8-6.18,5.36-8.72,9.28-8.94,20.52,1.65,16.17,12.48-.25.67-.71,1.67-1,2.33-3.4,7.82-6.15,16.17-5.76,24.75.18,2.17.13,4.63,1.12,6.41.53.49,2.83.71,4.8,2,0,0,.68.43.68.43,3.36,2.31,4.73,5.75,2.86,9.38-1.51,2.9-3.78,4.95-4.91,7.76-.13.41-.26.83-.22,1.19.07.24.11.5.42.88,1.42,1.68,3.27,2.66,5.16,4.47,1.61,1.45,3.13,3.64,3.21,5.94.15,3.54-1.65,6.87-2.34,10.21-2.51,10.63.41,22.02,6.35,31.03.34.44.25,1.09-.22,1.41-.41.28-.96.21-1.29-.15h0Z" fill="#fff" stroke-width="0"/><path d="m120.03,179.11h0,0m29.75,7.08h0,0m-70.02,8.54h0,0m-3.83,2.77c3.79,2.81,9.36,5.56,16.66,5.56.38,0,.76,0,1.15-.02,5.28-.22,10.8-.82,15.42-3.61-2.18,4.57-3.51,8.58-2.76,12.58,1.02,5.52,5.5,9.23,11.13,9.23,6.02,0,12.57-4.21,18.05-9.46.14.93.39,1.86.75,2.77,3.01,7.63,12.03,9.25,16.76,9.72.77,2,1.82,7.15.96,16.55-.94,10.3-3.86,21.76-8.01,31.45-11.58,27.04-9.29,38.82-5.09,47.51,2.3,4.77,6.53,7.39,11.9,7.39,1.88,0,3.66-.32,5.23-.6.47-.08.93-.17,1.38-.24-.28,2.94-1.62,8.02-5.07,13.6-6.09,9.85-8.1,18.47-5.99,25.6,1.46,4.91,4.76,8.69,9.56,10.95,2.02.95,4.1,1.43,6.18,1.43s3.91-.46,5.5-1.16c-.62,4.38-1.08,10.01-.42,17,1.58,16.74,12.34,23.78,20.54,25.94,2.99,5.24,6.18,12.4,6.18,16.56,0,7.78-1.62,11.54-5.6,19.82-.43.39-2.43,1.92-9.07,3.82-5.51,1.57-11.99,2.81-18.26,4-5.22.99-10.15,1.93-14.01,2.99-4.81,1.32-6.84,1.86-8.77,1.86-2.59,0-6.58-.98-14.53-2.94-3.01-.74-6.43-1.58-10.6-2.58-13.4-3.19-15.86-9.19-21.63-27.66-2.55-8.18-5.73-18.36-11.11-29.89-16.47-35.26-21.32-52.04-25.94-70.33-4.53-17.94-3.9-46.34-3.29-73.8l.07-3.13c.35-15.78,4.41-22.57,8.7-29.76,3.01-5.04,6.42-10.75,8.06-18.93,1.25-6.25,3.79-10.03,5.97-12.24m101.5,173.37h0,0m-59.9-199.05c-2.81,0-5.47,2.27-6.35,7.96-1.95,12.69-7.16,14.43-17.79,14.86-.27.01-.54.02-.81.02-10.12,0-15.68-7.83-15.68-7.83,0,0-11.72,3.91-15.19,21.27-3.47,17.36-16.27,20.68-16.93,50.16-.65,29.48-1.52,59.43,3.47,79.17,4.99,19.75,10.2,37,26.47,71.83,16.28,34.83,11.07,55.66,38.41,62.17,16.59,3.95,22.27,5.74,27.09,5.74,3.12,0,5.87-.75,11-2.16,13.02-3.58,42.31-6.18,46.55-14.97,4.23-8.79,6.57-13.89,6.57-23.76s-9.4-24.2-9.4-24.2c0,0-15.62-.65-17.36-19.1-1.74-18.44,5.21-25.82-.43-29.29-.72-.44-1.39-.63-2.02-.63-3.72,0-6.31,6.47-11,6.47-.8,0-1.66-.19-2.6-.63-7.38-3.47-7.38-12.59,0-24.52,7.38-11.93,8.68-25.39,2.17-26.47-.72-.12-1.43-.17-2.14-.17-3.24,0-6.28,1.04-8.73,1.04-1.83,0-3.33-.59-4.33-2.64-2.6-5.39-6-14.29,5.25-40.54,11.25-26.26,12.13-58.78,1.71-59.55-10.43-.77-15.63-4.46-7.82-12.93,7.81-8.46,10.63-21.28.87-23.12-.73-.14-1.39-.2-1.97-.2-7.16,0-3.71,10.03-11.51,20.07-6.11,7.86-13.49,12.99-17.51,12.99-1.53,0-2.57-.74-2.87-2.36-1.09-5.86,12.37-21.93,10.85-30.5-.84-4.72-4.52-8.16-7.97-8.16h0Z" fill="#fff" stroke-width="0"/><path d="m207.26,220.01s-15.35,59.37,24.36,100.38c39.71,41.01,119.94,33.9,148.43-6.84,28.49-40.74-118.7-121.34-172.78-93.54Z" fill="#8ae7ff" stroke-width="0"/><g opacity=".2"><path d="m212,221.4s-14.44,55.84,22.91,94.42c37.35,38.58,112.81,31.89,139.61-6.43,26.79-38.32-111.65-114.13-162.52-87.99Z" fill="#000072" stroke-width="0"/></g><path d="m302.74,350.38c-28.76,0-55.5-10.23-72.93-28.23-21.05-21.74-26.73-48.54-27.78-67.18-1.14-20.13,2.63-34.96,2.79-35.58.18-.7.65-1.28,1.29-1.61,18.81-9.66,50.36-7.48,86.56,5.99,33.05,12.3,63.88,31.74,80.46,50.73,13.55,15.53,16.66,29.54,8.98,40.51-13.65,19.52-39.69,32.6-69.65,34.99-3.26.26-6.5.39-9.72.39Zm-93.29-128.63c-.83,3.76-3.31,16.76-2.37,33.1,1.02,17.74,6.43,43.21,26.35,63.8,16.48,17.02,41.89,26.69,69.29,26.7,3.09,0,6.21-.12,9.34-.37,28.48-2.27,53.12-14.55,65.92-32.85,7.83-11.19-.38-24.83-8.65-34.3-16.06-18.4-46.11-37.3-78.42-49.32-34.2-12.73-63.78-15.16-81.46-6.74Z" fill="#000072" stroke-width="0"/><path d="m214.76,226.36s-27.53,4.49-48.57,2.55c-21.05-1.94-27.99,2.4-30.6,15.42-2.6,13.02,3.47,32.44,23.65,36.84,20.18,4.39,47.01-3.7,57.47-10.18,0,0-4.37-27.01-1.95-44.63Z" fill="#72e542" stroke-width="0"/><g opacity=".2"><path d="m135.59,244.34c.81-4.05,2.04-7.26,3.98-9.7-1.53,12.91,4.94,30.46,24,34.61,17.25,3.76,39.34-1.61,51.93-7.29.62,5.43,1.21,9.04,1.21,9.04-10.45,6.48-37.29,14.57-57.47,10.18-20.18-4.39-26.26-23.82-23.65-36.84Z" fill="#000072" stroke-width="0"/></g><path d="m152.55,229.59s.58,3.16-.37,4.54c-.96,1.38-11.03,2.41-11.36,2.42-.33.02,0-3.48,0-3.48,0,0,4.06-4.01,7.23-4.32,3.17-.31,4.5.84,4.5.84Z" fill="#fff" stroke-width="0"/><path d="m140.67,243.27s6.15.55,5.83,3.72c-.33,3.17-7.27,8.75-7.6,9.02-.33.26-2.17.67-2.17.67,0,0-2.36-.24-2.36-3.09s.25-7.62.65-7.97,1.49-2.96,1.87-2.92c.38.04,3.78.58,3.78.58Z" fill="#fff" stroke-width="0"/><g opacity=".5"><path d="m213.14,232.63s-21.78,3.99-36.32,2.86c-14.54-1.14-22.92-3.39-27.56-1.68-4.64,1.71-8.83,6.7-9.62,8.88-.8,2.18-2.59-2.13-2.67-2.53s-.3-8.8,11.53-10.79c11.83-1.99,18.66-.41,19.23-.67.57-.26,8.74,1.31,20.51.41,11.77-.9,24.08-2.75,24.08-2.75,0,0,1.95.37,1.95.61s-1.14,5.66-1.14,5.66Z" fill="#fff" stroke-width="0"/></g><path d="m171.96,284.95c-4.57,0-9.05-.4-13.25-1.32-22.18-4.83-28.31-26.18-25.59-39.79,2.97-14.87,11.7-19.43,33.3-17.44,20.48,1.89,47.66-2.48,47.94-2.53.79-.13,1.59.12,2.17.68.57.56.85,1.36.74,2.15-2.34,17.03,1.9,43.62,1.94,43.88.16,1.01-.3,2.01-1.16,2.55-9.32,5.77-28.38,11.82-46.08,11.82Zm-14.27-53.95c-14.11,0-17.81,4.76-19.63,13.83-2.32,11.6,2.88,29.78,21.72,33.88,18.12,3.94,42.72-2.62,54.18-9.02-.86-5.85-3.42-25.25-2.07-40.34-7.98,1.13-28.86,3.66-45.93,2.08-3.09-.29-5.83-.43-8.27-.43Z" fill="#000072" stroke-width="0"/><path d="m142.73,238.61c-2.15,0-3.95-.18-4.7-.27-.92-.11-1.58-.94-1.47-1.87.11-.92.94-1.58,1.86-1.48,4.28.5,11.14.3,12.3-1.71.96-1.67-.04-3.77-.05-3.79-.42-.83-.08-1.84.75-2.26.83-.42,1.84-.08,2.26.75.08.15,1.83,3.73-.05,6.98-1.74,3.01-6.91,3.63-10.9,3.63Z" fill="#000072" stroke-width="0"/><path d="m135.98,259.94c-.52,0-1.04-.24-1.37-.7-.54-.76-.37-1.81.39-2.35,4.74-3.39,9.81-8.17,9.81-9.89,0-.97-4.12-2.41-8.94-2.7-.93-.06-1.63-.85-1.58-1.78.06-.93.84-1.63,1.78-1.58,2.84.17,12.1,1.11,12.1,6.06,0,4.28-8.59,10.75-11.22,12.63-.3.21-.64.31-.98.31Z" fill="#000072" stroke-width="0"/><path d="m215.32,221.66s-13,52.84,24.43,92.88c25.2,24.09,66.73,22.03,80.61,20.29,0,0-9.01-28.43,5.97-47.31,14.97-18.88,39.71-9.76,45.57.65l-4.56,13.35,12.69,12.04s4.56-6.08,8.9-15.41c0,0,28.21-15.84,33.42-64.99,5.21-49.15-25.64-80.69-70.92-91.28,0,0-6.12-5.66-13.06-4-6.94,1.65-5.86,8.53-5.86,8.53,0,0-100.94,9.4-117.19,75.26Z" fill="#ffcd52" stroke-width="0"/><path d="m390.53,288.17s9.89-51.32-5.28-93.99c-15.17-42.67-32.84-51.59-32.84-51.59l7.5,1.57s27.54,6.52,47.92,31.43c20.38,24.91,13.63,64.31,13.63,64.31,0,0-2.32,20.61-13.19,37.48-10.88,16.87-16.79,18.6-16.79,18.6l-1.65-3.24.69-4.57Z" fill="#18b4fe" stroke-width="0"/><path d="m356.15,145.74s22.16,18.25,31.33,55.36c9.17,37.11,4.42,76.05,4.42,76.05l-2.26,16.82s-2.13,7.37-3.82,10.32c-1.68,2.95-5.14,8.36-5.14,8.36l-2.23-.6s-9.91-9.4-10.07-9.56c-.16-.16-.6-2.28-.6-2.28,0,0,12.18-24.12,3.75-75.7-8.43-51.58-36.77-75.98-36.77-75.98,0,0-3.54-2.54-1.41-7.06,2.14-4.51,7.99-4.84,12.61-3.62,4.61,1.22,10.17,7.87,10.17,7.87Z" fill="#8ae7ff" stroke-width="0"/><path d="m370.42,267.61s-16.45-8.76-34.39-2.02c-17.94,6.74-21.14,23.51-21.14,23.51,0,0-1.33,3.94-1.61,10.57-.28,6.63,1.56,11.18,1.56,11.18l2.17-.98s2.5-28.1,21.7-31.68c19.2-3.58,30.05,6.08,30.05,6.08,0,0,3.51.22,3.64-.06.13-.28,1.1-13.07,1.1-13.07l-3.08-3.53Z" fill="#ffe39c" stroke-width="0"/><path d="m367.44,242.04s-28.97,4.58-44.8-16.42c-15.83-21-5.34-35.93-.22-42.89,5.11-6.97,20.48-14.47,20.98-14.68.5-.21,4.53-2.14,4.53-2.14,0,0,3.3,2.93,3.51,3.26.21.33,3.87,6.54,3.87,6.54l-1.52,2.58s-26.87.06-27.55,25.42c0,0,.36,15.45,20.3,24.13,10.29,4.56,23.45,2.88,23.45,2.88,0,0,1.87,1.14,1.92,1.3.05.16,1.08,6.67,1.08,6.67l-2.71,2.6-2.84.75Z" fill="#ffe39c" stroke-width="0"/><g opacity=".5"><path d="m246.37,179.99s-22.13,22.25-25.82,47.42c-3.69,25.17,4.56,63.58,4.56,63.58,0,0-10.04-13.33-11.97-39.22-1.92-25.88,5.88-40.95,8.71-48.06,2.83-7.12,20.4-23.4,24.53-23.72Z" fill="#fff" stroke-width="0"/></g><g opacity=".5"><path d="m386.57,207.12s-13.83-34.72-28.35-50.24c-14.52-15.52-21.58-13.18-23.64-11.83-2.06,1.35-.83-3.21,0-4.55.83-1.34,5.74-2.66,6.84-2.93,1.1-.27,3.5.56,4.51.99,1.01.43,6.22,2.28,17.83,15.24,11.61,12.96,26.19,45.73,22.81,53.32Z" fill="#fff" stroke-width="0"/></g><g opacity=".2"><path d="m270.47,295.6c.24-.04.47-.09.7-.14-3.2-3.56-7.69-9.15-10.27-14.92-4.32-9.67-4.07-9.03-4.32-9.67s-1.33-5.29-.45-5.7c.88-.41,3.04-.99,3.04-.99,0,0,3.91,9.01,8.79,20.41,2.07,4.84,5.19,7.75,6.3,10.05,43.05-7.7,59.19-50.13,59.19-50.13,17.13,8.4,34.44,4.38,34.44,4.38l1.11,17.22c-8.33-3.39-24.8-3.66-34.29,0-21.35,8.87-20.46,32.04-20.46,32.04,0,0,2.69-14.91,18.27-23.22,15.58-8.31,35.7-1.52,35.7-1.52l-1.05,9.49-.69-1.35c-2.39-1.95-14.54-8.68-28.29-3.07-13.75,5.61-17.5,14.68-19.67,29.87-2.17,15.19.89,26.59.89,26.59,0,0-1.36.15-1.98.84-.62.69-8.25-.09-20.39,0-12.14.09-22.78-3.38-22.78-3.38-39.59-10.45-49.16-53.56-49.16-53.56,0,0,17.81,21.5,45.37,16.76Z" fill="#000072" stroke-width="0"/></g><g opacity=".2"><path d="m372.99,279.49c1.36-9.49,1.16-23.98,1.16-23.98,0,0,.06-5.77-.67-14.58-2.65,1.38-13.38,5.56-35.12-2.89-25.4-9.87-22.66-37.22-22.66-37.22,0,0-.43,15.95,18.23,28.09,18.66,12.14,38.47,7.07,38.47,7.07l.83,2.17c-1.28-13.44-4.33-32.53-11.61-49.26-12.89-29.62-26.5-41.33-26.5-41.33,0,0,5.97-2.93,14.17,6.51,8.2,9.44,17.62,26.37,22.5,40.58,4.88,14.21,13.24,15.62,13.24,15.62,6.94,35.59,0,92.66,0,92.66l-3.96,8.57s-1.94.74-2.28.65c-.34-.09-7.87-7.27-9.8-9.22-1.93-1.95-.5-4.77-.5-4.77,0,0,3.13-9.17,4.49-18.66Z" fill="#000072" stroke-width="0"/></g><g opacity=".2"><path d="m353.33,173.7c3.13,1.52,0,4.59,0,4.59,0,0-10.29-.14-19.87,7.85-9.58,7.99-7.28,20.22-7.28,20.22,0,0-4.52-15.08,5.79-24.41,10.31-9.33,21.36-8.25,21.36-8.25Z" fill="#000072" stroke-width="0"/></g><g opacity=".2"><path d="m361.74,151.3h1.86c14,4.23,24.57,24.57,32.31,41.66,7.74,17.09,20.58,15.95,20.58,15.95,4.34,29.89-8.9,66.67-8.9,66.67-3.36,10.98-15.28,20.01-15.28,20.01l-1.7-2.27s1.95-15.89,2.28-21.59c.33-5.7,1.79-27.18-3.34-60.98-5.13-33.8-27.82-59.46-27.82-59.46Z" fill="#000072" stroke-width="0"/></g><path d="m375.89,185.88s-8.06,2.12-12.61,1.46c-4.56-.65-2.26-3.8-2.26-3.8,0,0,6.74.19,7.15.1.41-.09,5.33-1.5,5.33-1.5l2.4,3.74Z" fill="#8ae7ff" stroke-width="0"/><path d="m389.16,235.44s-2.36,1.14-8.38,1.63c-6.02.49-7.92-.93-7.78-1.32.14-.39,1.16-2.89,1.16-2.89,0,0,4.85.94,7.51.4,2.66-.55,6.46-1.15,6.46-1.15l1.04,3.34Z" fill="#8ae7ff" stroke-width="0"/><path d="m388.45,273.58s-5.26.65-11.72-1.46l-1.68-.6.71-3.2s2.51.51,2.94.65,7.1,1.05,7.58,1.04c.48-.01,3.27.59,3.27.59l-1.1,2.98Z" fill="#8ae7ff" stroke-width="0"/><polygon points="416.99 198.12 406.84 212.98 404.45 212.98 388.75 203.71 389.55 201.59 405.76 207.85 415.19 196.05 416.99 198.12" fill="#18b4fe" stroke-width="0"/><polygon points="397.94 169.85 387.48 168.47 381.67 178.97 379.96 177.66 379.96 174.98 384.97 165.31 386.57 164.92 395.1 165.29 397.94 169.85" fill="#18b4fe" stroke-width="0"/><path d="m383.05,167l-21.31-17.73s-1.84-4.27-1.66-4.22c.19.06,3.66.84,4.21,1.34.54.51,19.14,16.81,19.14,16.81l.6,2.09-.98,1.71Z" fill="#18b4fe" stroke-width="0"/><path d="m417.25,254.85c.02-.12-8.53-7.12-8.53-7.12l-13.96,11.31.49-4.15,13.18-10.38s8.8,6.02,8.81,6.31c.02.28,0,4.03,0,4.03Z" fill="#18b4fe" stroke-width="0"/><g opacity=".5"><path d="m384.03,165.29l-.98,1.71-21.31-17.73c-1.78-.58-2.8-.83-2.8-.83l-.72-3.93s.68.18,1.86.54h0c.19.06,3.66.84,4.21,1.34,0,0,0,0,0,0,9.13,3.09,26.33,9.94,35.65,20.32,13.09,14.58,20.53,27.11,22.23,48.73.03.36-2-6.29-6.46-15.46l-8.87,13h-2.39l-15.71-9.27.81-2.12,16.2,6.27,8.55-10.68c-3.88-7.56-9.27-16.38-16.36-24.33-1.06-1.19-2.14-2.33-3.24-3.41l-7.23-.96-5.81,10.5-1.71-1.3v-2.69l5.01-9.67,1.6-.39,3.37.15c-5.99-5.05-12.06-8.69-17.23-11.26,5.14,4.51,10.72,9.4,10.72,9.4l.6,2.09Z" fill="#fff" stroke-width="0"/></g><g opacity=".5"><path d="m408.44,244.51s8.8,6.02,8.81,6.31c.02.28,0,4.03,0,4.03.02-.12-8.53-7.12-8.53-7.12l-13.96,11.31.49-4.15,13.18-10.38Z" fill="#fff" stroke-width="0"/></g><path d="m304.27,338.27c-18.37,0-46.9-3.41-66.26-21.91-.03-.03-.07-.07-.1-.1-19.83-21.21-25.59-45.96-26.92-62.98-1.44-18.41,1.75-31.67,1.89-32.23h0c6.85-27.76,29.76-49.92,66.23-64.08,22.84-8.87,43.99-11.99,50.87-12.84.34-3.28,2.22-7.39,7.82-8.73,6.96-1.66,13.01,2.67,14.82,4.14,23.44,5.59,42.51,16.61,55.16,31.89,13.72,16.56,19.63,37.99,17.09,61.98-4.88,46.07-29.32,63.56-33.97,66.49-4.3,9.06-8.65,14.91-8.84,15.16-.43.58-1.09.94-1.81,1-.72.06-1.43-.19-1.95-.68l-12.69-12.04c-.72-.68-.97-1.71-.65-2.65l4.17-12.2c-2.95-4.18-10.1-8.65-18.6-9.32-6.16-.49-15.02.83-22.22,9.91-13.94,17.58-5.62,44.71-5.54,44.98.22.71.12,1.49-.28,2.12-.4.63-1.07,1.05-1.81,1.14-2.67.33-8.63.95-16.41.95Zm-62.72-25.51c23.73,22.63,62.65,21.12,75.62,19.88-1.93-8-5.71-30.42,7.19-46.69,6.69-8.44,16.13-12.63,26.57-11.8,9.85.78,19.38,6.04,23.17,12.79.35.63.42,1.37.19,2.05l-4.03,11.81,9.38,8.9c1.67-2.53,4.39-6.98,7.01-12.61.22-.48.59-.88,1.05-1.14.27-.15,27.15-15.94,32.14-63.06,4.69-44.25-21.1-77.36-68.99-88.56-.43-.1-.82-.31-1.14-.61-.05-.04-5.25-4.72-10.76-3.4-4.37,1.04-4.06,4.93-3.95,5.7.09.68-.09,1.39-.52,1.93-.43.54-1.06.89-1.74.96-.25.02-25.29,2.46-51.93,12.81-24.27,9.44-54.92,27.6-63.05,60.54h0c-.13.52-12.19,51.98,23.77,90.5Z" fill="#000072" stroke-width="0"/><path d="m318.15,325.65c-.78,0-1.53-.44-1.89-1.18-.55-1.14-13.36-28.13,3.55-49.32,16.91-21.19,44.45-14.19,55.14-7.48.98.62,1.28,1.91.66,2.9-.62.98-1.92,1.28-2.9.66-9.27-5.82-34.63-12.25-49.62,6.54-15.27,19.14-3.18,44.61-3.06,44.86.51,1.04.07,2.3-.97,2.81-.3.14-.61.21-.92.21Z" fill="#000072" stroke-width="0"/><path d="m371.91,290.69c-.15,0-.3-.01-.45-.04-1.37-.25-2.28-1.56-2.03-2.93.04-.22,4.01-22.65,1.18-50.98-2.59-25.98-11.6-62.41-39.79-88.48-1.02-.95-1.09-2.54-.14-3.56.95-1.02,2.54-1.08,3.57-.14,29.39,27.18,38.74,64.94,41.4,91.83,2.88,29.01-1.08,51.31-1.25,52.25-.22,1.22-1.28,2.07-2.48,2.07Z" fill="#000072" stroke-width="0"/><path d="m388.94,300.67c-.14,0-.29-.01-.44-.04-1.37-.24-2.29-1.55-2.05-2.92,10.49-59.86,0-98.49-10.63-120.35-11.5-23.62-25.64-33.29-25.78-33.39-1.16-.78-1.47-2.34-.69-3.5.77-1.16,2.33-1.47,3.49-.7.62.41,15.24,10.33,27.35,35.02,11.07,22.57,22.01,62.37,11.24,123.79-.21,1.23-1.28,2.09-2.48,2.09Z" fill="#000072" stroke-width="0"/><path d="m363.88,233.2c-9.23,0-23.65-2.34-33.87-15.06-6.84-8.51-7.84-18.51-2.75-27.43,5.75-10.07,18.03-15.92,29.87-14.22,1.15.16,1.95,1.23,1.78,2.38-.16,1.15-1.22,1.95-2.38,1.78-10.17-1.46-20.71,3.53-25.62,12.14-4.19,7.34-3.32,15.62,2.38,22.71,14.18,17.66,38.44,12.84,38.68,12.79,1.14-.23,2.25.49,2.49,1.63.24,1.14-.49,2.25-1.62,2.49-.39.08-3.89.79-8.96.79Z" fill="#000072" stroke-width="0"/><path d="m359.45,244.73c-11.01,0-21.47-3.25-29.96-9.51-10.13-7.47-16.05-18.28-16.65-30.44-1.49-30.2,35.52-40.79,35.89-40.89,1.12-.31,2.28.35,2.59,1.46.31,1.12-.35,2.28-1.46,2.59-.34.09-34.14,9.8-32.81,36.63.54,10.87,5.84,20.55,14.94,27.26,11.16,8.23,26.11,10.77,40.99,6.96,1.13-.29,2.27.39,2.56,1.52.29,1.12-.39,2.27-1.51,2.56-4.88,1.25-9.78,1.87-14.57,1.87Z" fill="#000072" stroke-width="0"/><path d="m393.28,258.13s-.07,0-.11,0c-.93-.06-1.63-.86-1.57-1.79q.05-.73,2.99-3.16l12.86-10.58c.58-.48,1.41-.51,2.03-.08l10.58,7.41c.76.53.95,1.58.41,2.34-.53.76-1.58.95-2.34.41l-9.54-6.68c-5.25,4.31-13.79,11.33-14.22,11.7-.3.26-.68.42-1.1.42Z" fill="#000072" stroke-width="0"/><path d="m408.52,245.58c-.86,0-1.59-.65-1.67-1.53l-3.25-34.99c-.04-.4.07-.8.31-1.13l11.99-16.77c.54-.75,1.59-.93,2.35-.39s.93,1.59.39,2.35l-11.62,16.26,3.2,34.37c.09.92-.59,1.74-1.52,1.83-.05,0-.11,0-.16,0Z" fill="#000072" stroke-width="0"/><path d="m405.27,210.59c-.28,0-.56-.07-.82-.21l-18.7-10.4c-.81-.45-1.1-1.48-.65-2.29.45-.81,1.47-1.1,2.29-.65l18.7,10.4c.81.45,1.1,1.48.65,2.29-.31.55-.88.86-1.47.86Z" fill="#000072" stroke-width="0"/><path d="m378.41,178.61c-.28,0-.56-.07-.82-.22-.81-.46-1.1-1.48-.64-2.29l6.84-12.12c.32-.58.96-.91,1.61-.85l12.69,1.11c.93.08,1.61.9,1.53,1.82s-.89,1.61-1.82,1.53l-11.62-1.02-6.3,11.18c-.31.55-.88.86-1.47.86Z" fill="#000072" stroke-width="0"/><path d="m385.25,166.49c-.39,0-.79-.14-1.11-.42l-22.53-19.75c-.7-.61-.77-1.67-.16-2.37.61-.7,1.67-.77,2.37-.16l22.53,19.75c.7.61.77,1.67.16,2.37-.33.38-.8.57-1.27.57Z" fill="#000072" stroke-width="0"/><path d="m385.79,271.7c-4.27,0-9.5-.86-13.01-4.4-.65-.66-.65-1.72.01-2.38.66-.65,1.72-.65,2.38.01,5.37,5.42,16.93,2.75,17.05,2.72.9-.22,1.81.34,2.03,1.25.21.9-.34,1.81-1.25,2.02-.26.06-3.34.77-7.21.77Z" fill="#000072" stroke-width="0"/><path d="m378.87,235.15c-2.14,0-4.42-.33-6.77-1.16-.88-.31-1.33-1.27-1.02-2.15.31-.88,1.27-1.33,2.15-1.02,9.43,3.34,17.98-3.16,18.07-3.23.73-.57,1.79-.44,2.36.3.57.73.44,1.79-.3,2.36-.32.25-6.44,4.9-14.48,4.9Z" fill="#000072" stroke-width="0"/><path d="m364.72,185.7c-2.09,0-4.27-.38-6.45-1.32-.85-.37-1.25-1.36-.88-2.21s1.36-1.25,2.21-.88c8.8,3.8,18.26-4.2,18.35-4.28.7-.61,1.77-.53,2.37.18.61.7.53,1.76-.17,2.37-.36.31-7.22,6.14-15.44,6.14Z" fill="#000072" stroke-width="0"/><path d="m255.13,281.17s8.87,20.26,27.99,26.93c0,0-8.13-6.58-13.71-13.87-5.58-7.29-9.4-12.58-9.4-12.58l-4.88-.49Z" fill="#ffd55c" stroke-width="0"/><g opacity=".2"><path d="m299.48,251.93s-18.58-1.25-41.85,6.89c0,0-4.69-16.93-7.13-25.37-2.44-8.43-3.98-10.01-3.98-10.01,0,0,.23,16.83,6.5,37.03,0,0-11.5,6.11-18.97,16.57,0,0,20.36-11.5,38.26-17.04,17.9-5.53,27.18-8.08,27.18-8.08Z" fill="#000072" stroke-width="0"/></g><path d="m302.19,252.62c-24.13,6.77-48.73,13.33-70.15,26.77-.69.46-1.52-.52-.85-1.11,16.79-14.43,39.69-22.19,61.26-25.93,3.16-.5,6.32-.92,9.53-1.11.81-.05,1.05,1.18.22,1.38h0Z" fill="#000072" stroke-width="0"/><path d="m247.07,220.01c3.46,27.92,9.77,57.26,28.34,79.26,2.67,3.05,5.6,5.86,8.71,8.52.31.25.35.7.09,1-.23.27-.62.32-.91.13-3.51-2.27-6.81-4.9-9.83-7.83-17.84-18.02-25.6-43.82-27.61-68.57-.28-4.16-.43-8.31-.19-12.5.06-.81,1.3-.93,1.4-.02h0Z" fill="#000072" stroke-width="0"/><g opacity=".2"><path d="m331,184.01s-11.72,25.05-49.69,40.95c-37.97,15.9-68.17-2.25-68.17-2.25l46.47-14.96,51.43-22.94s14.25-8.44,15.15-7.87c.91.57,4.81,7.08,4.81,7.08Z" fill="#000072" stroke-width="0"/></g><path d="m270.67,216.34s50.34-15.19,75.08-49.91c24.74-34.72,7.81-48.17-9.11-69.87-16.93-21.7-44.7-77.25-122.82-49.48-78.12,27.78-65.97,122.39-41.66,151.03,24.3,28.64,62.06,28.64,98.52,18.23Z" fill="#72e542" stroke-width="0"/><g opacity=".5"><path d="m168.66,81.73s24.33-41.84,85.52-42.25c36.46,0,61.41,23.02,78.34,53.83,0,0-20.13-25.67-51.67-38.72-1.9,3.18-9.96,4.63-19.22,3.27-10.12-1.49-17.89-5.79-17.54-9.66-26.97,1.25-55,13.95-75.43,33.53Z" fill="#fff" stroke-width="0"/></g><g opacity=".2"><path d="m163.1,89.8c-5.43,32.34,4.01,65.83,16.84,80.95,24.3,28.64,62.06,28.64,98.52,18.23,0,0,50.34-15.19,75.08-49.91,2.56-3.59,4.66-6.95,6.37-10.11.23,8.58-3.19,18.6-12.45,31.6-24.74,34.72-75.08,49.91-75.08,49.91-36.46,10.42-74.21,10.42-98.52-18.23-15.72-18.53-26.34-64.64-10.76-102.43Z" fill="#000072" stroke-width="0"/></g><path d="m229.57,225.29c-25.04,0-44.91-8.53-59.34-25.54-15.02-17.71-24.82-57.37-15.21-93.09,5.61-20.85,20.22-48.53,57.96-61.95,30.94-11,57.88-10.21,80.07,2.34,18.8,10.64,30.9,27.59,39.73,39.97,2.09,2.92,4.06,5.69,5.86,7.99,1.71,2.19,3.44,4.32,5.1,6.38,14.7,18.12,27.4,33.77,4.08,66.51-24.95,35.02-74.32,50.23-76.41,50.86-.01,0-.02,0-.04.01-15.22,4.35-29.17,6.52-41.79,6.52Zm23.91-183.24c-11.3,0-24.14,2.2-38.81,7.41-35.68,12.68-49.48,38.82-54.78,58.51-9.06,33.67.31,72.16,14.19,88.52,20.31,23.94,52.57,29.81,95.88,17.44,1.11-.34,49.96-15.57,73.74-48.95,21.1-29.62,10.62-42.53-3.88-60.41-1.68-2.07-3.42-4.22-5.16-6.45-1.86-2.39-3.87-5.19-5.98-8.16-13.52-18.95-34.19-47.9-75.19-47.9Zm17.19,174.3h0,0Z" fill="#000072" stroke-width="0"/><path d="m244.93,145.4c-3.52-2.4-7.24-4.53-10.99-5.62-7.16-2.39-15.59.8-17.63,8.3-1.12,3.66-1.05,8.02-.48,12.19.11.54-.25,1.07-.8,1.15-.41.06-.8-.16-.98-.51-1.08-2.11-1.75-4.3-2.18-6.63-3.43-18.45,16.69-27.29,29.88-15.41,1.77,1.57,3.34,3.24,4.59,5.27.28.45.14,1.04-.31,1.32-.36.22-.79.18-1.1-.06h0Z" fill="#000072" stroke-width="0"/><path d="m323.64,105.22c-3.52-2.4-7.24-4.53-10.99-5.62-7.16-2.39-15.59.8-17.63,8.3-1.12,3.66-1.05,8.02-.48,12.19.11.54-.25,1.07-.8,1.15-.41.06-.8-.16-.98-.51-1.08-2.11-1.75-4.3-2.18-6.63-3.43-18.45,16.69-27.29,29.88-15.41,1.77,1.57,3.34,3.24,4.59,5.27.28.45.14,1.04-.31,1.32-.36.22-.79.18-1.1-.06h0Z" fill="#000072" stroke-width="0"/><path d="m309.99,134.73c2.35,9.82.64,21.16-6.31,28.8-8.31,9.01-22.34,11.26-33.53,7.06-4.71-1.71-9.08-4.22-12.76-7.66-.34-.32-.35-.85-.03-1.19.3-.31.77-.34,1.1-.11,5.3,3.22,11.28,5.46,17.24,6.22,5.94.75,11.96-.15,17.36-2.71,11.4-5.18,15.31-18.27,15.26-30.15-.07-.99,1.41-1.25,1.66-.26h0Z" fill="#000072" stroke-width="0"/><path d="m315.9,137.8c-4.92-1.32-8.83-2.85-13.37.42-.46.36-1.13-.17-.88-.7,2.18-5.4,9.49-5.91,13.49-2.24.47.5,2.17,1.76,1.26,2.45-.16.1-.34.11-.5.06h0Z" fill="#000072" stroke-width="0"/><path d="m265.09,158.19c-4.02,3.13-7.59,5.32-7.73,10.92,0,.59-.81.8-1.09.28-3.43-5.78,2.31-12.7,8.53-12.29.55.03.74.79.29,1.08h0Z" fill="#000072" stroke-width="0"/><path d="m348.09,178.97s18.5,2.01,26.96-3.2c8.46-5.21,11.72-16.27,29.08-18.12,17.36-1.85,30.16,14.86,25.61,38.41-4.56,23.54-25.23,27.37-34.96,26.65,0,0-10.5,7.39-29.86,8.35-19.37.97-34.04-9.78-38.1-23.94-4.06-14.16,10-26.85,21.28-28.16Z" fill="#72e542" stroke-width="0"/><g opacity=".2"><path d="m359.1,220.75c17.61-.97,20.86-8.98,20.86-8.98,8.86.72,35.45,5.39,38.1-26.02.92-10.9-.58-20.24-3.98-27,11.91,4.17,19.28,18.57,15.66,37.31-4.56,23.54-25.23,27.37-34.96,26.65,0,0-10.5,7.39-29.86,8.35-19.37.97-34.04-9.78-38.1-23.94-.54-1.89-.75-3.74-.7-5.56,5.17,11.73,17.41,20.04,32.99,19.19Z" fill="#000072" stroke-width="0"/></g><path d="m430.04,194.31s-8.97.6-10.93-2.82c-1.96-3.42,10.68-13.21,10.68-13.21,0,0,2.89,10.13.25,16.02Z" fill="#fff" stroke-width="0"/><path d="m424.47,167s-10.47,6.16-13.21,3.36c-2.74-2.8-1.22-12.62-1.22-12.62,0,0,12.23,2.01,14.43,9.25Z" fill="#fff" stroke-width="0"/><path d="m389.16,163.09s5.55,6.33,8.3,5.46c2.75-.87,3.96-10.52,3.96-10.52,0,0-8.85,1.39-12.26,5.06Z" fill="#fff" stroke-width="0"/><g opacity=".5"><path d="m411.26,162.53s-15.67-.22-24.69,10.52c-9.02,10.74-9.67,29.19-9.67,29.19,0,0-3.22-4.12-2.75-13.78l.66-5.32s-8.65,2.71-17.77,2.28c-9.11-.43-21.16-2.06-29.4,15.19,0,0-.39-10.01,6.75-15.1,7.14-5.08,13.65-5.52,13.65-5.52,0,0,10.53.22,20.13-1.02,9.6-1.25,14.32-9.26,14.32-9.26,0,0,8.19-10.98,20.77-11.95,12.58-.97,8,4.78,8,4.78Z" fill="#fff" stroke-width="0"/></g><path d="m362.61,233.64c-18.28,0-33.8-10.37-38.22-25.82-1.78-6.2-.66-12.57,3.24-18.4,4.59-6.88,12.7-12.09,20.18-12.95.19-.02.37-.02.56,0,4.91.53,19.04,1.05,25.36-2.84,2.44-1.5,4.49-3.64,6.67-5.91,5.04-5.26,10.75-11.21,23.46-12.56,8.12-.86,15.6,1.93,21.05,7.87,7.24,7.88,9.9,20.1,7.3,33.53-4.63,23.91-24.87,29.31-36.77,28.74-2.84,1.76-13.28,7.45-30.41,8.3-.81.04-1.62.06-2.43.06Zm-14.49-52.13c-5.93.79-12.59,5.16-16.3,10.71-2.13,3.19-4.3,8.24-2.59,14.22,3.97,13.86,18.59,22.96,35.55,22.11,18.3-.91,28.44-7.83,28.54-7.9.47-.33,1.05-.49,1.63-.45,10.08.74,28.23-3.6,32.3-24.62,2.29-11.84.08-22.47-6.06-29.16-4.34-4.73-10.3-6.95-16.8-6.26-10.88,1.16-15.7,6.18-20.36,11.04-2.3,2.4-4.68,4.88-7.67,6.72-8.58,5.28-25.69,3.84-28.25,3.59Z" fill="#000072" stroke-width="0"/><path d="m394.77,225.23c-.19,0-.38-.02-.57-.06-2.58-.59-15.68-4.38-20.26-20.77-5.54-19.83,4.41-34.36,4.83-34.97.8-1.14,2.37-1.42,3.51-.62,1.14.8,1.42,2.37.62,3.51-.14.2-8.98,13.31-4.11,30.72,3.82,13.65,14.44,16.73,16.53,17.21,1.36.31,2.21,1.67,1.89,3.02-.27,1.17-1.31,1.96-2.46,1.96Z" fill="#000072" stroke-width="0"/><path d="m428.28,196.05c-3.14,0-8.77-.47-10.63-3.72-2.34-4.08,5.96-11.38,11.11-15.37.74-.57,1.79-.43,2.36.3.57.73.43,1.79-.3,2.36-5.64,4.37-10.52,9.65-10.23,11.08.96,1.66,6.14,2.14,9.34,1.93.91-.06,1.73.64,1.79,1.57.06.93-.64,1.73-1.56,1.79-.36.02-1.02.06-1.87.06Z" fill="#000072" stroke-width="0"/><path d="m413.48,172.75c-1.37,0-2.57-.34-3.42-1.2-3.17-3.23-1.95-12.27-1.68-14.05.14-.92,1.01-1.54,1.92-1.4.92.14,1.55,1,1.41,1.92-.56,3.63-.71,9.69.76,11.19.93.95,6.35-.82,11.16-3.64.8-.47,1.83-.2,2.3.6.47.8.2,1.83-.6,2.3-2.04,1.2-7.71,4.3-11.84,4.3Z" fill="#000072" stroke-width="0"/><path d="m396.92,170.31c-3.29,0-7.33-4.17-9.03-6.11-.61-.7-.54-1.76.16-2.37.7-.61,1.76-.54,2.37.15,2.63,3,5.73,5.16,6.53,4.97.91-.48,2.26-4.83,2.8-9.13.12-.92.97-1.58,1.88-1.46.92.12,1.57.96,1.46,1.88-.41,3.22-1.72,10.83-5.12,11.91-.34.11-.69.16-1.04.16Z" fill="#000072" stroke-width="0"/><path d="m368.76,284.26s-9.61-10.41-25.64-7.21c-16.02,3.2-20.57,13.19-24.32,27.12-3.75,13.94-.11,30.22,7.7,41.28,0,0,42.7,7.76,60.98-21.92,0,0-6.57-12.37-20.13-22.03,0,0,3.38-9.46,3.86-12.92,0,0-.54-2.33-2.45-4.33Z" fill="#72e542" stroke-width="0"/><path d="m247.27,320.67s-14.79,12.64-18.7,33.03c-3.91,20.4,9.35,36.67,9.35,36.67,0,0,50.33-1.95,54.67-27.78,0,0-5.42-13.46,2.93-27.07,0,0-28.9-.8-48.25-14.86Z" fill="#72e542" stroke-width="0"/><g opacity=".5"><path d="m383.3,329.24s-8.39-12.59-15.95-20.48c-7.57-7.89-10.58-13.16-10.58-13.16l4.97,2.55,3.66-10.71s-6.35-7.57-14.81-9.85c0,0,8.32-.68,12.87,2.1,4.55,2.78,8.02,7.77,8.02,7.77l-2.97,10.69s-.99,3.26,1.93,5.72,13.33,12.93,14.64,15.82c1.31,2.89,1.92,4.6,1.92,4.6l-3.7,4.94Z" fill="#fff" stroke-width="0"/></g><g opacity=".5"><path d="m287.54,373.06s-3.3-10.35-2.43-21.09c.87-10.74,6.94-15.9,6.94-15.9l1.95,1.25s-3.36,8.03-3.47,14.21c-.11,6.18,1.95,11.65,1.95,11.65,0,0-2.18,8.4-4.94,9.87Z" fill="#fff" stroke-width="0"/></g><g opacity=".2"><path d="m343.12,277.05c2.42-.48,4.68-.65,6.8-.6-10.38,4.49-14.06,13.35-17.18,24.95-1.98,7.35-1.9,15.35-.24,22.89,2.59,11.78,13.29,19.86,25.34,19.16,1.1-.06,2.23-.15,3.39-.27-17.34,5.43-34.73,2.27-34.73,2.27-7.81-11.06-11.45-27.35-7.7-41.29,3.75-13.94,8.3-23.93,24.32-27.12Z" fill="#000072" stroke-width="0"/></g><g opacity=".2"><path d="m228.58,353.7c3.91-20.4,18.7-33.03,18.7-33.03,2.31,1.68,4.76,3.16,7.28,4.49-4.46,5.71-9.89,14.57-12.03,25.78-1.35,7.05-.65,13.6.84,19.16,2.58,9.61,11.34,15.95,20.98,15.87-13.38,3.9-26.41,4.41-26.41,4.41,0,0-13.25-16.28-9.35-36.67Z" fill="#000072" stroke-width="0"/></g><path d="m339.16,348.95c-7.33,0-12.51-.9-13.11-1.01-.65-.12-1.23-.49-1.61-1.03-8.69-12.3-11.86-29.34-8.08-43.39,3.55-13.2,8.23-25.35,26.26-28.94,17.02-3.4,27.32,7.27,27.97,7.96,2.32,2.43,3,5.19,3.07,5.49.07.3.08.61.04.91-.38,2.78-2.32,8.64-3.36,11.65,12.85,9.69,19.09,21.27,19.36,21.78.42.79.39,1.74-.08,2.51-12.63,20.51-35.84,24.08-50.47,24.08Zm-11.2-5.82c6.31.87,40.55,4.35,56.56-19.65-2.01-3.29-8.21-12.49-18.64-19.91-.92-.65-1.29-1.84-.91-2.9.86-2.41,3.08-8.95,3.65-11.9-.21-.59-.72-1.74-1.69-2.75,0,0-.02-.02-.02-.03h0c-.36-.38-8.94-9.32-23.3-6.46-13.91,2.78-18.45,10.7-22.38,25.31-3.27,12.15-.56,27.39,6.72,38.3Zm40.79-53.97h0,0Z" fill="#000072" stroke-width="0"/><path d="m365.85,303.55c-2.17-1.4-4.35-3-6.45-4.54-2.04-1.63-4.85-2.96-6.15-5.5-.07-.13-.02-.29.11-.36,1.66-.42,3.14-.1,4.44.4,3.94,1.48,7.7,3.32,11.04,5.92,1.09.87,1.27,2.46.4,3.55-.83,1.04-2.31,1.25-3.38.52h0Z" fill="#000072" stroke-width="0"/><path d="m237.92,392.9c-.76,0-1.48-.34-1.96-.93-.57-.7-13.95-17.43-9.87-38.74,4.03-21.02,18.9-33.94,19.54-34.48.89-.76,2.18-.81,3.12-.12,18.47,13.42,46.56,14.37,46.84,14.38.9.03,1.72.53,2.15,1.32.43.79.4,1.75-.07,2.52-7.55,12.3-2.79,24.7-2.74,24.82.17.43.22.9.14,1.35-4.63,27.53-54.92,29.8-57.06,29.88-.03,0-.06,0-.1,0Zm9.59-68.98c-3.67,3.66-13.47,14.66-16.46,30.26-3.1,16.19,5.45,29.86,8.08,33.6,7.69-.53,46.6-4.23,50.85-24.97-.96-2.86-3.88-13.48,1.46-25.02-8.45-.73-28.5-3.51-43.94-13.88Z" fill="#000072" stroke-width="0"/><path d="m134.37,439.85s248.92-140.79,339.41-136.47c39.06,4.73-25.72,67.61-155.75,129.38-82.07,37.69-158.03,57.22-158.03,57.22,0,0-51.43-.65-66.4-25.39l40.77-24.74Z" fill="#fded77" stroke-width="0"/><path d="m318.03,348.33s127.36-20.42,66,49.96c0,0,47.46-27.37,76.54-52.71,29.08-25.34,26.15-33.26,20.94-39.01-5.21-5.75-24.52-6.92-62.15,4.84-37.62,11.76-80.57,25.63-101.33,36.92Z" fill="#ff3866" stroke-width="0"/><path d="m255.13,458.32s22.62-13.96,22.62-35.66-35.22-30.49-86.4-13.51c0,0-52.75,29.72-67.04,36.8-14.3,7.09-31.66,18.8-31.66,18.8,0,0,8.56,12.24,29.13,18.92,20.57,6.69,40.53,7.55,40.53,7.55,0,0,83.01-26.98,92.83-32.91Z" fill="#ffb878" stroke-width="0"/><g opacity=".2"><path d="m189.85,424.79s197.62-103.6,270.25-108.66c31.1,3.76-61.04,76.17-164.58,125.35-65.34,30.01-140.07,48.5-140.07,48.5,0,0-38.21-4.32-54.58-16.27l88.97-48.91Z" fill="#000072" stroke-width="0"/></g><path d="m160,492.5h-.03c-2.16-.03-53.01-.96-68.53-26.61-.72-1.19-.34-2.74.85-3.46l40.77-24.74s.04-.03.07-.04c.62-.35,63.15-35.64,135.94-69.94,97.98-46.17,166.91-68.66,204.83-66.85.06,0,.12,0,.18.02,9.94,1.2,12.76,5.91,13.37,9.64,2.39,14.67-25.95,38.53-43.06,51.45-31.22,23.57-75.71,49.53-125.28,73.08-81.36,37.36-157.72,57.19-158.48,57.38-.2.05-.42.08-.63.08Zm-62.84-27.12c15,20.27,58.32,21.96,62.54,22.07,5.57-1.46,79.11-21.09,157.27-56.98,111.97-53.19,168.06-103.37,165.49-119.14-.48-2.93-3.47-4.76-8.9-5.43-88.53-4.14-333.82,133.82-337.92,136.13l-38.48,23.35Z" fill="#000072" stroke-width="0"/><path d="m427.56,388.42c.63-1.05,14.62-19.03,7.82-22.95-6.8-3.92-19.1,9.71-23.66,17.96-4.56,8.25-14.54,14.97-19.75,6.94-5.21-8.03-5.52-9.76-14.05-5.42-8.52,4.34-12.12,12.15-17.59,10.2-5.47-1.95-4.17-13.24-14.15-10.2-9.98,3.04-16.93,10.85-24.3,9.33-7.38-1.52-13.89-5.86-19.96,4.56-6.08,10.42-4.12,9.76-14.1,9.55-9.98-.22-22.57-4.56-32.33,3.47-9.76,8.03-10.2,15.84-21.48,16.27s-23.09-8.68-29.66-1.74c-6.57,6.94-5.71,16.49-21.33,22.13-15.62,5.64-24.97-12.5-36.5-3.04-11.53,9.46-21.24,23.69-27.31,18.14-6.07-5.55,3.48-32.03-4.77-38.97-8.25-6.94-13.02.74-17.36-9.83-4.34-10.57,3.69-25.11,2.39-36.61-1.3-11.5-9.76-13.89-13.24-9.11-3.47,4.77.87,16.93-4.99,18.66-5.86,1.74-8.68-10.42-10.42-18.23-1.74-7.81-6.29-5.21-4.99-10.42,1.3-5.21,11.5-15.41,5.86-20.61-5.64-5.21-14.32-2.6-15.84-9.11-1.52-6.51,6.08-18.44,1.95-22.57-4.12-4.12-4.99-10.42-1.95-14.76,3.04-4.34,18.23-6.94,14.54-18.44-3.69-11.5-10.79-4.77-16.35-11.5-5.57-6.73.51-16.06,9.41-22.78,8.9-6.73,20.4-14.32,9.33-21.48-11.07-7.16-9.11-12.8-.87-21.27,8.25-8.46,28.21-15.57,24.74-26.23-3.47-10.66-8.68-11.53-2.39-18.91,6.29-7.38,18.44-12.15,19.53-23.87,1.08-11.72-9.11-19.76-24.74-2.72-15.62,17.04-7.81,25.72-15.62,32.77-7.81,7.05-14.54,1.9-15.41,12.72-.87,10.82,2.82,26.23-4.56,35.56-7.38,9.33-12.15,10.63-12.59,2.6s9.33-16.06.87-21.27c-8.46-5.21-16.27,5.22-17.79,16.93-1.52,11.71,4.56,14.66,8.9,27.29,4.34,12.63,5.42,22.83-2.17,24.13s-13.67-.43-11.07,9.76c2.6,10.2,10.2,20.4,8.03,33.2-2.17,12.8-9.11,4.12-11.5,13.67s0,18.62,6.94,23.52c6.94,4.9,18.66,16.19,14.32,22.05-4.34,5.86-13.24-1.08-13.24,9.33s15.41,10.2,20.4,18.01c4.99,7.81,2.39,18.23,7.38,22.57,4.99,4.34,13.02,2.17,13.02,9.33s-6.29,11.07-.87,21.7c5.42,10.63,20.4,4.12,15.41,14.97-4.99,10.85-.65,18.01,9.55,24.52,10.2,6.51,6.73,3.25,16.27,16.27,9.55,13.02,25.61-2.6,31.25,0,5.64,2.6,35.15,17.88,51.65,5.25,16.49-12.63,39.82-24.13,43.73-22.18,3.91,1.95-8.46,10.42-.33,14,8.14,3.58,16.93-.65,20.51-8.79,3.58-8.14,25.64-1.95,32.84-12.37,7.2-10.42-6.47-4.88-8.43-10.42-1.95-5.53,18.88-10.09,33.2-4.56,14.32,5.53,26.37,7.49,36.13-5.53,9.76-13.02,17.51.98,28.28-7.16,10.78-8.14,7.44-15.37,12.85-12.69,5.41,2.67,8.01,10.74,16.15,5.53,8.14-5.21,15.78-32.82,24.41-47.2Z" fill="#fff" stroke-width="0"/><path d="m130.82,307.01s6.18-3.04,2.5-8.35c-3.69-5.32-7.49.22-6.94,3.04.54,2.82,2.71,5.32,4.45,5.32Z" fill="#fff" stroke-width="0"/><path d="m80.04,323.55c1.36.11,4.34.82,2.17-8.72-.5-2.21-1.03-4.02-1.54-5.49-1.03-2.96-5.16-3.19-6.47-.34-2.63,5.71-4.42,13.76,5.84,14.56Z" fill="#fff" stroke-width="0"/><path d="m100.28,234.64s6.13-1.74,7.92-8.27c1.79-6.53-3.73-11.09-7.32-7.02s-8.85,14.48-.6,15.29Z" fill="#fff" stroke-width="0"/><path d="m189.73,346.38c3.58,0,17.25-17.02,4.01-17.67-13.24-.65-10.96,10.2-8.79,14.1,2.17,3.91,4.77,3.56,4.77,3.56Z" fill="#fff" stroke-width="0"/><path d="m9.19,283.09c3.36,2.54,8.18-.18,7.94-4.38-.19-3.42-1.22-7.62-4.79-9.41-6.51-3.25-11.23,2.12-7.16,8.95,1.36,2.28,2.69,3.83,4.01,4.83Z" fill="#fff" stroke-width="0"/><path d="m41.96,164.98c.81.81,3.25,3.09,8.3-.98,5.05-4.07,8.63-14.39,3.42-17.61-5.21-3.22-14,2.96-14.65,8.98-.65,6.02,2.93,9.6,2.93,9.6Z" fill="#fff" stroke-width="0"/><path d="m331.28,381.91s-20.84,4.01-18.22-1.17c2.62-5.19,16.16-7.38,18.22,1.17Z" fill="#fff" stroke-width="0"/><path d="m284.96,394.46c-3.28,5.44-5.91-2.95-3.74-4.08,2.17-1.13,5.96.39,3.74,4.08Z" fill="#fff" stroke-width="0"/><path d="m368.68,379.08c1.2,1.81-7.38,8.55-8.03,3.41-.65-5.14,4.56-8.62,8.03-3.41Z" fill="#fff" stroke-width="0"/><path d="m367.5,67.01c-3.92-6.42-5.86-14.13-5.03-22.19,2.01-19.57,19.5-33.81,39.08-31.8,19.57,2.01,33.81,19.5,31.8,39.08-2.01,19.57-19.5,33.81-39.08,31.8-5.44-.56-10.47-2.32-14.86-4.99l-16.49,3.7,4.57-15.6Z" fill="#fff" stroke-width="0"/><g opacity=".5"><path d="m400.84,19.84c-18.28-1.88-34.75,10.42-38.48,28.01,0-1.26.05-2.52.18-3.8,2.01-19.57,19.5-33.81,39.08-31.8,19.57,2.01,33.81,19.5,31.8,39.08-.13,1.28-.33,2.54-.59,3.78-.07-17.98-13.7-33.38-31.98-35.26Z" fill="#fff" stroke-width="0"/></g><path d="m397.93,86.61c-1.3,0-2.61-.07-3.93-.2-5.35-.55-10.4-2.17-15.02-4.81l-15.51,3.48c-.87.2-1.78-.08-2.39-.74-.61-.65-.83-1.58-.58-2.44l4.27-14.54c-3.97-6.94-5.63-14.79-4.81-22.79,1.04-10.14,5.97-19.26,13.87-25.69,7.9-6.43,17.84-9.4,27.97-8.36,10.14,1.04,19.26,5.97,25.69,13.87,6.43,7.9,9.4,17.84,8.36,27.97-2.01,19.6-18.62,34.25-37.92,34.25Zm-18.52-10.22c.46,0,.91.13,1.31.37,4.22,2.57,8.86,4.12,13.8,4.63,18.16,1.86,34.44-11.39,36.31-29.55.9-8.8-1.67-17.42-7.25-24.27-5.58-6.86-13.5-11.13-22.29-12.04-8.8-.9-17.42,1.67-24.27,7.25-6.86,5.58-11.13,13.5-12.03,22.29-.75,7.26.87,14.4,4.67,20.62.37.61.47,1.34.27,2.03l-3.37,11.49,12.31-2.76c.18-.04.37-.06.55-.06Z" fill="#000072" stroke-width="0"/><g opacity=".3"><path d="m367.3,66.67c9.76,8.25,23.2,11.87,36.55,8.54,14.8-3.68,25.71-14.96,29.63-28.64.09,1.81.05,3.66-.14,5.52-2.01,19.57-19.5,33.81-39.08,31.8-5.44-.56-10.47-2.32-14.86-4.99l-16.49,3.7,4.57-15.6c-.07-.11-.13-.23-.2-.34Z" fill="#000072" stroke-width="0"/></g><path d="m386.51,38.46h0c3.08-3.08,8.08-2.53,11.16.55l.48.48.48-.48c3.08-3.08,8.08-3.64,11.16-.55h0c3.08,3.08,3.08,8.08,0,11.16l-.48.48-9.69,9.69c-.81.81-2.13.81-2.94,0l-9.69-9.69-.48-.48c-3.08-3.08-3.08-8.08,0-11.16Z" fill="#ff0068" stroke-width="0"/></g><g id="OBJECTS"><text transform="translate(476.81 310.34)" font-family="Barlow-ExtraBold, Barlow" font-size="191.63" font-weight="700"><tspan x="0" y="0" fill="#7a17bf">T</tspan><tspan x="113.06" y="0" fill="#7a17bf" letter-spacing="0em">R</tspan><tspan x="232.06" y="0" fill="#7a17bf" letter-spacing="0em">A</tspan><tspan x="363.33" y="0" fill="#7a17bf" letter-spacing="0em">V</tspan><tspan x="484.25" y="0" fill="#7a17bf">EL </tspan><tspan x="742.95" y="0" fill="#ff9948" letter-spacing="0em">FUU</tspan></text><text transform="translate(805.72 398.04)" fill="#f9532c" font-family="Barlow-Medium, Barlow" font-size="74.36" font-weight="500"><tspan x="0" y="0">Vivu muôn </tspan><tspan x="351.89" y="0" letter-spacing="0em">n</tspan><tspan x="391.75" y="0">ơi</tspan></text></g></svg>